<?xml version="1.0" standalone="no"?>
<!DOCTYPE svg PUBLIC "-//W3C//DTD SVG 20010904//EN"
 "http://www.w3.org/TR/2001/REC-SVG-20010904/DTD/svg10.dtd">
<svg version="1.0" xmlns="http://www.w3.org/2000/svg"
 width="148.000000pt" height="117.000000pt" viewBox="0 0 148.000000 117.000000"
 preserveAspectRatio="xMidYMid meet">

<g transform="translate(0.000000,117.000000) scale(0.100000,-0.100000)"
fill="#000000" stroke="none">
<path d="M275 900 l-260 -260 77 0 78 0 2 -317 3 -318 570 0 570 0 3 318 2
317 78 0 77 0 -262 262 -263 263 -103 -103 -102 -102 -100 100 c-55 55 -102
100 -105 100 -3 -1 -122 -118 -265 -260z m330 40 l60 -60 -120 -120 -120 -120
78 0 77 0 -2 -261 -3 -260 -145 0 -145 0 -3 313 -2 312 127 128 c70 70 130
128 133 128 3 0 32 -27 65 -60z"/>
</g>
</svg>
